<svg width="244" height="39" viewBox="0 0 244 39" fill="none" xmlns="http://www.w3.org/2000/svg">
<path d="M106 1L112.035 35.4757" stroke="white" stroke-width="4"/>
<path d="M122.769 1.11292L116.163 35.4838" stroke="white" stroke-width="4"/>
<path d="M79.0962 2L79 36.9999" stroke="white" stroke-width="4"/>
<path d="M90.0962 2L90 36.9999" stroke="white" stroke-width="4"/>
<path d="M79 3L89.3238 36.4428" stroke="white" stroke-width="4"/>
<path d="M33.0962 2L33 36.9999" stroke="white" stroke-width="4"/>
<path d="M50.0962 2L50 36.9999" stroke="white" stroke-width="4"/>
<path d="M52 4H63" stroke="white" stroke-width="4"/>
<path d="M52 35H63" stroke="white" stroke-width="4"/>
<path d="M52 20H63" stroke="white" stroke-width="4"/>
<path d="M168.096 3L168 37.9999" stroke="white" stroke-width="4"/>
<path d="M179.096 3L179 37.9999" stroke="white" stroke-width="4"/>
<path d="M168 4L178.324 37.4428" stroke="white" stroke-width="4"/>
<path d="M139.096 2L139 36.9999" stroke="white" stroke-width="4"/>
<path d="M141 4H152" stroke="white" stroke-width="4"/>
<path d="M141 35H152" stroke="white" stroke-width="4"/>
<path d="M141 20H152" stroke="white" stroke-width="4"/>
<path d="M231.096 2L231 36.9999" stroke="white" stroke-width="4"/>
<path d="M233 4H244" stroke="white" stroke-width="4"/>
<path d="M233 35H244" stroke="white" stroke-width="4"/>
<path d="M233 20H244" stroke="white" stroke-width="4"/>
<path d="M198.096 3L198 37.9999" stroke="white" stroke-width="4"/>
<path d="M214.096 3L214 37.9999" stroke="white" stroke-width="4"/>
<path d="M214.285 27.7947C205.597 46.3978 197.615 28.1173 197.615 28.1173" stroke="white" stroke-width="4"/>
<path d="M2.09619 2L2.00001 36.9999" stroke="white" stroke-width="4"/>
<path d="M4.0686 3.97553C32.069 3.89503 4.01989 18.0111 4.01989 18.0111" stroke="white" stroke-width="4"/>
<path d="M4.0487 19.0017C32.0491 18.9212 3.99999 33.0373 3.99999 33.0373" stroke="white" stroke-width="4"/>
</svg>
